# xmcd CD database file
#
# Track frame offsets:
#	150
#	11977
#	24140
#	35717
#	46690
#	59630
#	71887
#	82785
#	94512
#	106895
#	118630
#	131790
#	142810
#	154215
#	164115
#	176450
#
# Disc length: 2509 seconds
#
# Revision: 0
# Processed by: cddbd v1.4PL0 Copyright (c) Steve Scherf et al.
# Submitted via: Feurio! 1.63 - http://www.feurio.com
#
DISCID=d409cb10
DTITLE=Hank Williams - Greatest Hits
DYEAR=1900
DGENRE=country
TTITLE0=Take These Chains From My Heart
TTITLE1=Your Cheatin´Heart
TTITLE2=Kaw-Liga
TTITLE3=I´ll Never Get Out Of This World Alive
TTITLE4=Jambalaya
TTITLE5=Half As Much
TTITLE6=I Can´t Help It
TTITLE7=Settin´The Woods On Fire
TTITLE8=I Won´t Be Home No More
TTITLE9=Weary Blues From Waitin´
TTITLE10=Hey,Good Lookin´
TTITLE11=Crazy Heart
TTITLE12=Baby,We´re Really In Love
TTITLE13=Honky Tonk Blues
TTITLE14=Lovesick Blues
TTITLE15=Long Gone Lonesome Blues
EXTD=
EXTT0=
EXTT1=
EXTT2=
EXTT3=
EXTT4=
EXTT5=
EXTT6=
EXTT7=
EXTT8=
EXTT9=
EXTT10=
EXTT11=
EXTT12=
EXTT13=
EXTT14=
EXTT15=
PLAYORDER=
